:SAMPLES-PER-SECOND 30
:FULLY-SPECIFIED
:DEGREES
94
root  -2.64718 40.859 0.220374 3.31396 -86.167 -6.6418
RightUpLeg  5.60743 -1.9503 -0.791392
RightLeg  0.283238 -21.1162 0.249831
RightFoot  -1.46744 -0.302673 3.38641
RightToes  -3.13006e-008 1.75238e-005 3.56266e-009
Spine  -1.92988 1.05623 5.01589
Spine1  6.1199 1.60811 -3.06927
HEad  -5.91846 -4.59129 6.83875
LeftShoulder1  0.63664 -1.41204 -5.10487
LeftArm  -75.5595 -59.2758 -15.3268
LeftForeArm  108.037 -80.4882 -94.8068
LeftHand  -0.954669 -0.0126769 20.4684
RightShoulder  0.867803 2.5129 6.80952
RightArm  -83.4746 40.2149 7.35613
RightForeArm  120.955 72.4812 141.791
RightHand  -1.74925 9.19895 -14.219
LeftUpLeg  3.33081 2.34417 3.12234
LeftLeg  3.6245 7.0793 -0.439935
LeftFoot  -3.162 0.200413 -2.53366
LeftToes  4.78685e-008 1.46778e-008 1.34523e-009
95
root  -2.67949 40.8643 -0.136363 2.46812 -85.0941 -5.32411
RightUpLeg  5.4476 -1.79664 -0.249817
RightLeg  -0.209372 -22.3357 0.664238
RightFoot  -1.5287 -0.257734 2.87922
RightToes  -3.13006e-008 1.75238e-005 3.56266e-009
Spine  -1.38147 1.6029 5.52958
Spine1  4.5116 2.68153 -5.50644
HEad  -5.40689 -5.43269 6.62519
LeftShoulder1  0.612888 -1.30932 -4.85841
LeftArm  -76.8862 -59.8046 -15.0084
LeftForeArm  106.944 -80.4609 -94.405
LeftHand  -1.08854 -0.528078 21.3328
RightShoulder  0.832056 2.51166 6.13409
RightArm  -83.9997 41.1589 6.11651
RightForeArm  121.44 72.5562 141.691
RightHand  -1.83857 8.51467 -15.5988
LeftUpLeg  2.72513 2.16768 3.50312
LeftLeg  3.46495 6.23267 -0.12867
LeftFoot  -2.91308 0.265833 -3.36899
LeftToes  4.78685e-008 1.46778e-008 1.34523e-009
96
root  -2.71332 40.8669 -0.534521 1.77289 -83.8871 -4.4143
RightUpLeg  5.5728 -1.75033 0.293038
RightLeg  -0.73216 -23.5568 1.2043
RightFoot  -1.64802 -0.206437 2.30146
RightToes  -3.13006e-008 1.75238e-005 3.56266e-009
Spine  -0.882772 2.17796 6.01014
Spine1  3.65992 3.80994 -8.11685
HEad  -5.33755 -5.66784 6.59856
LeftShoulder1  0.605829 -1.30755 -4.69838
LeftArm  -77.198 -60.8298 -15.9768
LeftForeArm  108.849 -80.3743 -97.215
LeftHand  -0.916543 0.270042 20.7576
RightShoulder  0.764451 2.27333 5.45963
RightArm  -84.7329 42.0414 5.5148
RightForeArm  123.054 72.1718 142.81
RightHand  -1.9204 9.4506 -15.2919
LeftUpLeg  2.44945 2.03149 3.96038
LeftLeg  3.1135 5.19365 0.188052
LeftFoot  -2.54711 0.344809 -4.28338
LeftToes  4.78685e-008 1.46778e-008 1.34523e-009
97
root  -2.74043 40.8628 -0.949759 0.865668 -82.7852 -3.45289
RightUpLeg  5.78619 -1.69944 0.849646
RightLeg  -1.18806 -24.7548 1.66928
RightFoot  -1.8486 -0.160911 1.78419
RightToes  -3.13006e-008 1.75238e-005 3.56266e-009
Spine  -0.673213 2.66352 6.12584
Spine1  3.88014 4.83136 -10.3273
HEad  -5.39107 -5.8452 6.29277
LeftShoulder1  0.592894 -1.1011 -5.01804
LeftArm  -77.6215 -61.9029 -16.5689
LeftForeArm  111.077 -80.3086 -99.5788
LeftHand  -0.953672 0.197607 21.2874
RightShoulder  0.720752 2.00433 5.29391
RightArm  -85.268 43.4611 4.9663
RightForeArm  125.404 72.0954 143.33
RightHand  -1.89869 9.95473 -14.6474
LeftUpLeg  2.35481 1.8346 4.33357
LeftLeg  2.69559 4.2721 0.595784
LeftFoot  -2.18942 0.42374 -5.13112
LeftToes  4.78685e-008 1.46778e-008 1.34523e-009
98
root  -2.75668 40.8392 -1.38797 0.0441247 -81.6393 -2.88299
RightUpLeg  6.15836 -1.60752 1.49862
RightLeg  -1.38288 -26.0734 1.99159
RightFoot  -2.21802 -0.101475 1.08255
RightToes  -3.13006e-008 1.75238e-005 3.56266e-009
Spine  -0.264704 2.88053 5.94564
Spine1  4.34915 5.59102 -12.2861
HEad  -5.51005 -6.40991 6.14295
LeftShoulder1  0.58545 -0.961468 -5.26838
LeftArm  -76.8651 -62.27 -18.1485
LeftForeArm  115.826 -80.1091 -104.723
LeftHand  -0.93283 0.318979 21.3073
RightShoulder  0.736437 2.24142 4.98942
RightArm  -84.7674 44.5788 5.96435
RightForeArm  127.477 71.8389 144.181
RightHand  -1.86614 10.0751 -14.2997
LeftUpLeg  2.43814 1.87375 4.84806
LeftLeg  2.53199 3.10697 0.885991
LeftFoot  -1.90004 0.473818 -5.59747
LeftToes  4.78685e-008 1.46778e-008 1.34523e-009
99
root  -2.76884 40.8061 -1.81382 -1.12085 -80.7212 -2.10122
RightUpLeg  6.38826 -1.72363 1.95158
RightLeg  -0.990691 -26.8874 2.14978
RightFoot  -2.77381 -0.0621118 0.574757
RightToes  -3.13006e-008 1.75238e-005 3.56266e-009
Spine  -0.497832 3.1377 5.66118
Spine1  5.96191 6.49971 -14.033
HEad  -5.77561 -7.4641 6.12221
LeftShoulder1  0.681814 -1.48067 -5.93282
LeftArm  -76.482 -62.188 -18.9996
LeftForeArm  120.009 -79.9002 -108.832
LeftHand  -0.997726 -0.00253737 21.4405
RightShoulder  0.829772 2.8337 5.29094
RightArm  -83.2793 44.9707 7.15169
RightForeArm  128.867 71.4985 145.073
RightHand  -1.95949 10.1699 -14.9002
LeftUpLeg  2.64875 1.93081 5.31664
LeftLeg  2.41321 2.11331 1.12562
LeftFoot  -1.66466 0.535537 -6.20618
LeftToes  4.78685e-008 1.46778e-008 1.34523e-009
100
root  -2.77638 40.765 -2.19727 -1.83594 -80.0357 -1.73316
RightUpLeg  6.47822 -1.99659 2.26717
RightLeg  -0.429842 -27.3114 2.37845
RightFoot  -3.33541 -0.0193652 -0.0428559
RightToes  -3.13006e-008 1.75238e-005 3.56266e-009
Spine  -0.664941 3.35094 5.39209
Spine1  7.40106 7.31841 -15.4772
HEad  -6.18847 -7.73526 5.79911
LeftShoulder1  0.749664 -1.78107 -6.47387
LeftArm  -74.4498 -61.6312 -21.5616
LeftForeArm  125.301 -79.4899 -114.483
LeftHand  -0.943687 0.0728288 20.5935
RightShoulder  0.919298 3.18165 6.05248
RightArm  -80.5543 45.6111 9.06602
RightForeArm  130.418 71.2546 145.772
RightHand  -2.00397 9.98737 -15.395
LeftUpLeg  2.66908 2.08613 5.82146
LeftLeg  2.64319 1.20965 1.27694
LeftFoot  -1.60398 0.586191 -6.76533
LeftToes  4.78685e-008 1.46778e-008 1.34523e-009
101
root  -2.78509 40.7145 -2.52695 -1.67027 -79.4727 -2.28954
RightUpLeg  6.61482 -2.12543 2.70376
RightLeg  0.13419 -27.6955 2.51569
RightFoot  -3.86362 0.0003717 -0.313698
RightToes  -3.13006e-008 1.75238e-005 3.56266e-009
Spine  -1.11702 3.56757 4.71696
Spine1  9.2172 7.90108 -15.5761
HEad  -5.75541 -8.45508 4.88402
LeftShoulder1  0.891673 -2.28559 -7.87018
LeftArm  -72.7855 -60.7324 -22.8412
LeftForeArm  128.278 -79.0848 -118.439
LeftHand  -0.929796 0.313608 21.2191
RightShoulder  0.96985 3.35464 6.4596
RightArm  -77.4404 46.2913 11.1964
RightForeArm  131.603 71.3482 145.765
RightHand  -1.85114 9.42111 -14.7899
LeftUpLeg  2.56759 2.18432 6.34316
LeftLeg  3.24125 0.494236 1.56756
LeftFoot  -1.81092 0.626289 -7.38121
LeftToes  4.78685e-008 1.46778e-008 1.34523e-009
102
root  -2.81107 40.6772 -2.75547 -1.51428 -79.4052 -2.68722
RightUpLeg  6.70826 -2.266 2.96976
RightLeg  0.463411 -27.664 2.70465
RightFoot  -4.23394 0.025246 -0.674417
RightToes  -3.13006e-008 1.75238e-005 3.56266e-009
Spine  -1.84002 3.87742 4.6165
Spine1  10.9143 8.62569 -16.0613
HEad  -5.6844 -9.20648 4.27906
LeftShoulder1  0.960109 -2.47314 -8.59925
LeftArm  -70.641 -59.5949 -24.6402
LeftForeArm  128.959 -79.0903 -118.627
LeftHand  -0.929763 0.214883 20.8343
RightShoulder  1.15214 4.14759 7.52862
RightArm  -75.0781 46.2284 11.7358
RightForeArm  131.953 71.5992 145.332
RightHand  -1.892 9.9044 -14.6439
LeftUpLeg  2.52395 2.17151 6.68172
LeftLeg  3.73415 0.368854 1.84879
LeftFoot  -2.11382 0.664971 -8.0763
LeftToes  4.78685e-008 1.46778e-008 1.34523e-009
